ffmpeg started on 2016-12-01 at 08:32:27
Report written to "Output/x264/results/ffmpeg/Told_town_cross_2160p50medium11000k.log"
Command line:
Tools/ffmpeg/ffmpeg -i Output/x264/encoded/old_town_cross_2160p50medium11000k.mkv -c:v rawvideo -pix_fmt yuv420p Output/x264/transcoded/old_town_cross_2160p50medium11000k.yuv
ffmpeg version N-82227-gdb23fde Copyright (c) 2000-2016 the FFmpeg developers
  built with gcc 5.4.0 (Ubuntu 5.4.0-6ubuntu1~16.04.2) 20160609
  configuration: --prefix=/home/jaroslav/ffmpeg_build --pkg-config-flags=--static --extra-cflags=-I/home/jaroslav/ffmpeg_build/include --extra-ldflags=-L/home/jaroslav/ffmpeg_build/lib --bindir=/home/jaroslav/bin --enable-gpl --enable-libass --enable-libfdk-aac --enable-libfreetype --enable-libmp3lame --enable-libopus --enable-libtheora --enable-libvorbis --enable-libvpx --enable-libx264 --enable-libx265 --enable-nvenc --enable-libmfx --enable-libxvid --enable-libgsm --enable-libopencore-amrnb --enable-version3 --enable-nonfree
  libavutil      55. 35.100 / 55. 35.100
  libavcodec     57. 66.101 / 57. 66.101
  libavformat    57. 57.100 / 57. 57.100
  libavdevice    57.  2.100 / 57.  2.100
  libavfilter     6. 66.100 /  6. 66.100
  libswscale      4.  3.100 /  4.  3.100
  libswresample   2.  4.100 /  2.  4.100
  libpostproc    54.  2.100 / 54.  2.100
Input #0, matroska,webm, from 'Output/x264/encoded/old_town_cross_2160p50medium11000k.mkv':
  Metadata:
    ENCODER         : Lavf57.57.100
  Duration: 00:00:10.00, start: 0.000000, bitrate: 11110 kb/s
    Stream #0:0: Video: h264 (High), yuv420p(progressive), 3840x2160 [SAR 1:1 DAR 16:9], 50 fps, 50 tbr, 1k tbn, 100 tbc (default)
    Metadata:
      ENCODER         : Lavc57.66.101 libx264
      DURATION        : 00:00:10.000000000
Output #0, rawvideo, to 'Output/x264/transcoded/old_town_cross_2160p50medium11000k.yuv':
  Metadata:
    encoder         : Lavf57.57.100
    Stream #0:0: Video: rawvideo (I420 / 0x30323449), yuv420p, 3840x2160 [SAR 1:1 DAR 16:9], q=2-31, 200 kb/s, 50 fps, 50 tbn, 50 tbc (default)
    Metadata:
      DURATION        : 00:00:10.000000000
      encoder         : Lavc57.66.101 rawvideo
Stream mapping:
  Stream #0:0 -> #0:0 (h264 (native) -> rawvideo (native))
Press [q] to stop, [?] for help
frame=   15 fps=0.0 q=-0.0 size=  182250kB time=00:00:00.30 bitrate=4976640.0kbits/s speed=0.59x    frame=   32 fps= 31 q=-0.0 size=  388800kB time=00:00:00.64 bitrate=4976640.0kbits/s speed=0.627x    frame=   49 fps= 32 q=-0.0 size=  595350kB time=00:00:00.98 bitrate=4976640.0kbits/s speed=0.639x    frame=   66 fps= 32 q=-0.0 size=  801900kB time=00:00:01.32 bitrate=4976640.0kbits/s speed=0.646x    frame=   83 fps= 32 q=-0.0 size= 1008450kB time=00:00:01.66 bitrate=4976640.0kbits/s speed=0.649x    frame=  100 fps= 33 q=-0.0 size= 1215000kB time=00:00:02.00 bitrate=4976640.0kbits/s speed=0.652x    frame=  117 fps= 33 q=-0.0 size= 1421550kB time=00:00:02.34 bitrate=4976640.0kbits/s speed=0.653x    frame=  134 fps= 33 q=-0.0 size= 1628100kB time=00:00:02.68 bitrate=4976640.0kbits/s speed=0.653x    frame=  151 fps= 33 q=-0.0 size= 1834650kB time=00:00:03.02 bitrate=4976640.0kbits/s speed=0.654x    frame=  168 fps= 33 q=-0.0 size= 2041200kB time=00:00:03.36 bitrate=4976640.0kbits/s speed=0.655x    frame=  185 fps= 33 q=-0.0 size= 2247750kB time=00:00:03.70 bitrate=4976640.0kbits/s speed=0.655x    frame=  202 fps= 33 q=-0.0 size= 2454300kB time=00:00:04.04 bitrate=4976640.0kbits/s speed=0.656x    frame=  219 fps= 33 q=-0.0 size= 2660850kB time=00:00:04.38 bitrate=4976640.0kbits/s speed=0.655x    frame=  236 fps= 33 q=-0.0 size= 2867400kB time=00:00:04.72 bitrate=4976640.0kbits/s speed=0.656x    frame=  253 fps= 33 q=-0.0 size= 3073950kB time=00:00:05.06 bitrate=4976640.0kbits/s speed=0.656x    frame=  270 fps= 33 q=-0.0 size= 3280500kB time=00:00:05.40 bitrate=4976640.0kbits/s speed=0.657x    frame=  287 fps= 33 q=-0.0 size= 3487050kB time=00:00:05.74 bitrate=4976640.0kbits/s speed=0.656x    frame=  303 fps= 33 q=-0.0 size= 3681450kB time=00:00:06.06 bitrate=4976640.0kbits/s speed=0.655x    frame=  320 fps= 33 q=-0.0 size= 3888000kB time=00:00:06.40 bitrate=4976640.0kbits/s speed=0.655x    frame=  337 fps= 33 q=-0.0 size= 4094550kB time=00:00:06.74 bitrate=4976640.0kbits/s speed=0.654x    frame=  354 fps= 33 q=-0.0 size= 4301100kB time=00:00:07.08 bitrate=4976640.0kbits/s speed=0.654x    frame=  371 fps= 33 q=-0.0 size= 4507650kB time=00:00:07.42 bitrate=4976640.0kbits/s speed=0.654x    frame=  388 fps= 33 q=-0.0 size= 4714200kB time=00:00:07.76 bitrate=4976640.0kbits/s speed=0.653x    frame=  405 fps= 33 q=-0.0 size= 4920750kB time=00:00:08.10 bitrate=4976640.0kbits/s speed=0.653x    frame=  422 fps= 33 q=-0.0 size= 5127300kB time=00:00:08.44 bitrate=4976640.0kbits/s speed=0.652x    frame=  439 fps= 33 q=-0.0 size= 5333850kB time=00:00:08.78 bitrate=4976640.0kbits/s speed=0.652x    frame=  456 fps= 33 q=-0.0 size= 5540400kB time=00:00:09.12 bitrate=4976640.0kbits/s speed=0.652x    frame=  473 fps= 33 q=-0.0 size= 5746950kB time=00:00:09.46 bitrate=4976640.0kbits/s speed=0.651x    frame=  490 fps= 33 q=-0.0 size= 5953500kB time=00:00:09.80 bitrate=4976640.0kbits/s speed=0.651x    frame=  500 fps= 33 q=-0.0 Lsize= 6075000kB time=00:00:10.00 bitrate=4976640.0kbits/s speed=0.65x    
video:6075000kB audio:0kB subtitle:0kB other streams:0kB global headers:0kB muxing overhead: 0.000000%
